HIERARCHY
ROOT Hips
{
	OFFSET 0.000000 0.000000 0.000000
	CHANNELS 6 Xposition Yposition Zposition Yrotation Xrotation Zrotation
	JOINT Chest
	{
		OFFSET 0.000000 -0.009282 11.569106
		CHANNELS 6 Xposition Yposition Zposition Yrotation Xrotation Zrotation
		JOINT Chest2
		{
			OFFSET -0.000000 0.016863 9.269641
			CHANNELS 6 Xposition Yposition Zposition Yrotation Xrotation Zrotation
			JOINT Chest3
			{
				OFFSET -0.000000 0.000000 8.374491
				CHANNELS 6 Xposition Yposition Zposition Yrotation Xrotation Zrotation
				JOINT Chest4
				{
					OFFSET -0.000000 0.000000 8.374493
					CHANNELS 6 Xposition Yposition Zposition Yrotation Xrotation Zrotation
					JOINT Neck
					{
						OFFSET -0.000000 0.000001 12.152554
						CHANNELS 6 Xposition Yposition Zposition Yrotation Xrotation Zrotation
						JOINT Head
						{
							OFFSET -0.000000 0.040100 7.802319
							CHANNELS 6 Xposition Yposition Zposition Yrotation Xrotation Zrotation
							End Site
							{
								OFFSET -0.000000 0.020946 14.853096
							}
						}
					}
					JOINT RightCollar
					{
						OFFSET 2.894404 0.000001 6.791374
						CHANNELS 6 Xposition Yposition Zposition Yrotation Xrotation Zrotation
						JOINT RightShoulder
						{
							OFFSET 13.574684 0.000001 0.000000
							CHANNELS 6 Xposition Yposition Zposition Yrotation Xrotation Zrotation
							JOINT RightElbow
							{
								OFFSET 23.923903 0.000002 0.000000
								CHANNELS 6 Xposition Yposition Zposition Yrotation Xrotation Zrotation
								JOINT RightWrist
								{
									OFFSET 19.846718 0.012767 0.000000
									CHANNELS 6 Xposition Yposition Zposition Yrotation Xrotation Zrotation
									End Site
									{
										OFFSET 14.973145 0.000001 0.000000
									}
								}
							}
						}
					}
					JOINT LeftCollar
					{
						OFFSET -2.894404 0.000000 6.791374
						CHANNELS 6 Xposition Yposition Zposition Yrotation Xrotation Zrotation
						JOINT LeftShoulder
						{
							OFFSET -13.574684 -0.000001 0.000000
							CHANNELS 6 Xposition Yposition Zposition Yrotation Xrotation Zrotation
							JOINT LeftElbow
							{
								OFFSET -23.923903 -0.000002 0.000000
								CHANNELS 6 Xposition Yposition Zposition Yrotation Xrotation Zrotation
								JOINT LeftWrist
								{
									OFFSET -19.846718 0.012763 0.000000
									CHANNELS 6 Xposition Yposition Zposition Yrotation Xrotation Zrotation
									End Site
									{
										OFFSET -14.973145 -0.000001 0.000000
									}
								}
							}
						}
					}
				}
			}
		}
	}
	JOINT RightHip
	{
		OFFSET 9.469263 0.004643 0.045487
		CHANNELS 6 Xposition Yposition Zposition Yrotation Xrotation Zrotation
		JOINT RightKnee
		{
			OFFSET 0.000000 0.002666 -40.478676
			CHANNELS 6 Xposition Yposition Zposition Yrotation Xrotation Zrotation
			JOINT RightAnkle
			{
				OFFSET 0.000000 0.049110 -35.224068
				CHANNELS 6 Xposition Yposition Zposition Yrotation Xrotation Zrotation
				JOINT RightToe
				{
					OFFSET -0.000001 12.539530 -6.151390
					CHANNELS 6 Xposition Yposition Zposition Yrotation Xrotation Zrotation
					End Site
					{
						OFFSET -0.000001 5.044996 -1.291870
					}
				}
			}
		}
	}
	JOINT LeftHip
	{
		OFFSET -9.469263 0.004641 0.045487
		CHANNELS 6 Xposition Yposition Zposition Yrotation Xrotation Zrotation
		JOINT LeftKnee
		{
			OFFSET 0.000000 0.002666 -40.478676
			CHANNELS 6 Xposition Yposition Zposition Yrotation Xrotation Zrotation
			JOINT LeftAnkle
			{
				OFFSET 0.000000 0.049110 -35.224068
				CHANNELS 6 Xposition Yposition Zposition Yrotation Xrotation Zrotation
				JOINT LeftToe
				{
					OFFSET -0.000001 12.539530 -6.151390
					CHANNELS 6 Xposition Yposition Zposition Yrotation Xrotation Zrotation
					End Site
					{
						OFFSET -0.000001 5.044996 -1.291870
					}
				}
			}
		}
	}
}
MOTION
Frames: 4
Frame Time: 0.016667
11.080824 6.081022 83.049225 -7.894029 -3.691479 -111.076737 0.000000 -0.009284 11.569096 -0.364513 -3.914268 -0.175539 0.000000 0.016862 9.269642 -0.156782 -1.737436 -0.117007 0.000001 0.000000 8.374492 -0.156782 -1.737435 -0.117005 0.000001 -0.000000 8.374488 -0.117911 -1.303047 -0.088196 0.000001 0.000000 12.152567 1.565931 -17.162353 -1.539344 0.000000 0.040111 7.802309 2.362423 4.321246 -2.304025 2.894404 -0.000000 6.791377 4.599797 -1.147961 2.371334 13.574688 0.000001 0.000002 57.942325 -14.295965 43.528372 23.923903 0.000003 0.000001 51.222372 -3.102045 44.446059 19.846724 0.012773 0.000004 49.027562 17.150523 -14.679116 -2.894403 -0.000001 6.791382 -8.964840 -2.420906 -6.289542 -13.574684 0.000000 0.000000 -61.164781 -7.316150 -47.728795 -23.923916 -0.000006 -0.000002 -53.864644 -9.357239 -49.526180 -19.846716 0.012759 0.000007 -35.718659 54.919413 -17.137752 9.469264 0.004643 0.045476 0.376695 -11.490137 -2.827004 -0.000016 0.002663 -40.478790 0.185229 -2.502698 0.313566 0.000027 0.049096 -35.223827 0.736238 5.405232 -0.507979 -0.000001 12.539529 -6.151390 0.027657 0.023871 0.009330 -9.469262 0.004641 0.045481 -0.066906 -11.309190 0.147996 -0.000070 0.002665 -40.478733 0.691986 -1.288915 1.470070 0.000061 0.049100 -35.223877 -0.802029 4.195862 -1.443928 0.000001 12.539535 -6.151396 -0.021856 -0.061123 -0.005719 
11.084773 6.077820 83.048470 -7.908971 -3.695580 -111.052298 0.000000 -0.009283 11.569117 -0.359190 -3.902241 -0.169833 -0.000000 0.016865 9.269637 -0.154319 -1.731833 -0.114402 0.000000 0.000000 8.374479 -0.154319 -1.731832 -0.114402 0.000000 0.000000 8.374496 -0.116055 -1.298846 -0.086233 0.000000 0.000001 12.152565 1.546538 -17.207507 -1.556381 -0.000000 0.040098 7.802316 2.320962 4.237388 -2.342567 2.894404 0.000000 6.791375 4.597114 -1.072116 2.376399 13.574686 0.000001 0.000005 57.363767 -14.183169 44.491852 23.923901 0.000003 0.000004 49.442606 -2.951874 43.824765 19.846714 0.012759 0.000001 48.614291 15.734078 -15.490847 -2.894403 -0.000001 6.791383 -8.926651 -2.424237 -6.299128 -13.574683 -0.000002 0.000006 -60.837929 -7.367088 -47.824076 -23.923895 -0.000007 -0.000003 -53.298104 -9.693778 -49.449975 -19.846714 0.012764 -0.000002 -37.536882 53.453866 -16.583675 9.469264 0.004643 0.045495 0.382884 -11.510463 -2.815659 -0.000015 0.002663 -40.478786 0.183158 -2.502967 0.306022 0.000028 0.049095 -35.223824 0.734745 5.411961 -0.534636 -0.000001 12.539526 -6.151392 0.022823 0.023078 0.008702 -9.469263 0.004642 0.045486 -0.069486 -11.331714 0.137578 -0.000069 0.002666 -40.478733 0.706871 -1.278923 1.455699 0.000067 0.049102 -35.223877 -0.802777 4.195081 -1.451278 0.000000 12.539532 -6.151396 -0.024463 -0.062251 -0.005042 
11.089638 6.074830 83.047836 -7.923398 -3.698403 -111.034021 -0.000000 -0.009284 11.569107 -0.361495 -3.882305 -0.154628 -0.000001 0.016863 9.269648 -0.155488 -1.722676 -0.107151 0.000000 0.000001 8.374482 -0.155487 -1.722676 -0.107150 -0.000000 0.000000 8.374497 -0.116909 -1.291980 -0.080795 -0.000000 0.000001 12.152547 1.539871 -17.260330 -1.576118 0.000001 0.040104 7.802299 2.302191 4.139370 -2.381705 2.894403 0.000001 6.791368 4.567825 -1.031669 2.384589 13.574682 0.000001 0.000010 56.774250 -14.139047 45.466042 23.923899 0.000015 0.000004 47.619686 -2.880988 43.394043 19.846718 0.012760 -0.000002 48.045043 14.160406 -16.250644 -2.894405 0.000001 6.791368 -8.904482 -2.426711 -6.321186 -13.574683 -0.000002 -0.000009 -60.497881 -7.402022 -47.948348 -23.923901 -0.000005 -0.000008 -52.663795 -10.031088 -49.311131 -19.846722 0.012777 -0.000001 -39.403641 51.753791 -16.016095 9.469262 0.004641 0.045483 0.387811 -11.532108 -2.823604 -0.000015 0.002664 -40.478790 0.178048 -2.498371 0.314943 0.000029 0.049096 -35.223816 0.733572 5.417537 -0.554283 -0.000001 12.539527 -6.151392 0.020204 0.020939 0.008418 -9.469264 0.004640 0.045492 -0.075373 -11.353205 0.130226 -0.000066 0.002664 -40.478733 0.719296 -1.270716 1.444014 0.000064 0.049103 -35.223873 -0.800257 4.194913 -1.448835 -0.000000 12.539538 -6.151393 -0.026326 -0.062089 -0.004801 
11.095169 6.070661 83.047478 -7.939658 -3.698461 -111.013120 -0.000001 -0.009284 11.569096 -0.365033 -3.863243 -0.141026 0.000000 0.016864 9.269647 -0.157378 -1.713886 -0.100224 0.000001 -0.000000 8.374481 -0.157378 -1.713887 -0.100224 0.000000 -0.000000 8.374502 -0.118306 -1.285390 -0.075603 0.000000 -0.000000 12.152552 1.538933 -17.313693 -1.593542 0.000000 0.040094 7.802308 2.294846 4.040358 -2.414575 2.894404 -0.000000 6.791377 4.517097 -1.038920 2.413152 13.574686 0.000001 -0.000010 56.258182 -14.015149 46.467092 23.923904 0.000007 -0.000006 45.436590 -3.069877 43.012812 19.846716 0.012775 0.000001 47.368352 12.462435 -17.078085 -2.894403 -0.000001 6.791376 -8.905359 -2.419488 -6.344011 -13.574685 -0.000002 0.000009 -60.170333 -7.398603 -48.071548 -23.923903 -0.000001 0.000003 -52.000300 -10.408217 -49.184151 -19.846722 0.012764 -0.000004 -41.109064 49.842749 -15.189975 9.469263 0.004641 0.045478 0.391707 -11.559660 -2.860558 -0.000016 0.002664 -40.478790 0.169018 -2.485470 0.330345 0.000029 0.049096 -35.223831 0.736053 5.419720 -0.551861 -0.000001 12.539527 -6.151392 0.017808 0.019066 0.008375 -9.469264 0.004640 0.045478 -0.080850 -11.371901 0.114048 -0.000066 0.002666 -40.478729 0.726945 -1.270802 1.435373 0.000063 0.049102 -35.223862 -0.796586 4.197298 -1.432314 -0.000001 12.539534 -6.151387 -0.027316 -0.059862 -0.004526 
